<svg width="36" height="36" viewBox="0 0 36 36" fill="none" xmlns="http://www.w3.org/2000/svg">
<rect width="36" height="36" rx="18" fill="#EEF1FF"/>
<path opacity="0.4" d="M20.0153 12.5749C19.6186 12.5017 19.2542 12.7548 19.1787 13.1421C19.1032 13.5293 19.3571 13.9074 19.743 13.9831C20.9049 14.2097 21.8021 15.109 22.0295 16.2749V16.2757C22.0942 16.6113 22.3897 16.8553 22.7299 16.8553C22.7756 16.8553 22.8212 16.8512 22.8677 16.8429C23.2536 16.7654 23.5076 16.3882 23.432 16.0001C23.0926 14.2588 21.7523 12.9139 20.0153 12.5749Z" fill="#4548B9"/>
<path opacity="0.4" d="M19.9633 9.67328C19.7774 9.64663 19.5907 9.70159 19.4421 9.81985C19.2894 9.93976 19.194 10.113 19.1732 10.307C19.1292 10.6992 19.4122 11.054 19.8039 11.0981C22.5053 11.3996 24.605 13.504 24.9088 16.2138C24.9494 16.5769 25.254 16.8508 25.6175 16.8508C25.6449 16.8508 25.6715 16.8492 25.6989 16.8459C25.8889 16.825 26.0582 16.7309 26.1777 16.581C26.2964 16.4311 26.3503 16.2446 26.3288 16.0539C25.9503 12.6729 23.3336 10.0489 19.9633 9.67328Z" fill="#4548B9"/>
<path fill-rule="evenodd" clip-rule="evenodd" d="M17.1931 18.8103C20.5173 22.1336 21.2714 18.2889 23.388 20.404C25.4285 22.444 26.6013 22.8527 24.016 25.4373C23.6922 25.6975 21.6346 28.8286 14.4038 21.5997C7.17206 14.37 10.3013 12.3104 10.5616 11.9866C13.1532 9.39488 13.5548 10.5745 15.5954 12.6144C17.7119 14.7304 13.8688 15.487 17.1931 18.8103Z" fill="#4548B9"/>
</svg>
